<svg xmlns="http://www.w3.org/2000/svg" style="left: 0px; top: 0px; width: 100%; height: 100%; display: block; min-width: 739px; min-height: 500px;"><rect width="100%" height="100%" fill="white"/><g><g/><g><g transform="translate(0.5,0.5)" style="visibility: visible;"><path d="M 332.34 221.17 L 337.67 186.3 L 376.7 186.3 L 371.38 221.17 Z" fill="#ffffff" stroke="#000000" stroke-miterlimit="10" pointer-events="all"/></g><g style=""><g fill="black" font-family="Arial,Helvetica" direction="" text-anchor="middle" font-size="4.894472012371119px"><rect fill="none" stroke="none" x="343" y="195" width="22" height="18" stroke-width="1" transform="translate(0.5, 0.5)"/><text x="354.52" y="200.06">Queation</text><text x="354.52" y="205.87">Bank</text><text x="354.52" y="211.69">Website</text></g></g><g transform="translate(0.5,0.5)" style="visibility: visible;"><path d="M 145.19 311.1 L 149.98 276.23 L 185.11 276.23 L 180.32 311.1 Z" fill="#ffffff" stroke="#000000" stroke-miterlimit="10" pointer-events="all"/></g><g style=""><g fill="black" font-family="Arial,Helvetica" direction="" text-anchor="middle" font-size="4.894472012371119px"><rect fill="none" stroke="none" x="153" y="285" width="25" height="18" stroke-width="1" transform="translate(0.5, 0.5)"/><text x="165.15" y="290">Practice</text><text x="165.15" y="295.81">Solving</text><text x="165.15" y="301.62">Questions</text></g></g><g transform="translate(0.5,0.5)" style="visibility: visible;"><path d="M 332.34 214.26 L 185.11 284.19" fill="none" stroke="white" stroke-miterlimit="10" pointer-events="stroke" visibility="hidden" stroke-width="9"/><path d="M 332.34 214.26 L 185.11 284.19" fill="none" stroke="black" stroke-miterlimit="10" pointer-events="stroke"/></g><g transform="translate(0.5,0.5)" style="visibility: visible;"><path d="M 1.22 424.29 L 8.2 366.17 L 59.35 366.17 L 52.37 424.29 Z" fill="#ffffff" stroke="#000000" stroke-miterlimit="10" pointer-events="all"/></g><g style=""><g fill="black" font-family="Arial,Helvetica" direction="" text-anchor="middle" font-size="4.894472012371119px"><rect fill="none" stroke="none" x="18" y="381" width="24" height="29" stroke-width="1" transform="translate(0.5, 0.5)"/><text x="30.28" y="385.75">Support</text><text x="30.28" y="391.56">students</text><text x="30.28" y="397.37">practice</text><text x="30.28" y="403.18">oop</text><text x="30.28" y="408.99">questions</text></g></g><g transform="translate(0.5,0.5)" style="visibility: visible;"><path d="M 145.19 308.7 L 59.35 373.34" fill="none" stroke="white" stroke-miterlimit="10" pointer-events="stroke" visibility="hidden" stroke-width="9"/><path d="M 145.19 308.7 L 59.35 373.34" fill="none" stroke="black" stroke-miterlimit="10" pointer-events="stroke"/></g><g transform="translate(0.5,0.5)" style="visibility: visible;"><path d="M 120.53 424.29 L 127.5 366.17 L 178.65 366.17 L 171.67 424.29 Z" fill="#ffffff" stroke="#000000" stroke-miterlimit="10" pointer-events="all"/></g><g style=""><g fill="black" font-family="Arial,Helvetica" direction="" text-anchor="middle" font-size="4.894472012371119px"><rect fill="none" stroke="none" x="136" y="381" width="27" height="24" stroke-width="1" transform="translate(0.5, 0.5)"/><text x="149.59" y="385.75">Automated</text><text x="149.59" y="391.56">marking</text><text x="149.59" y="397.37">with</text><text x="149.59" y="403.18">feedback</text></g></g><g transform="translate(0.5,0.5)" style="visibility: visible;"><path d="M 162.48 311.1 L 154.04 366.17" fill="none" stroke="white" stroke-miterlimit="10" pointer-events="stroke" visibility="hidden" stroke-width="9"/><path d="M 162.48 311.1 L 154.04 366.17" fill="none" stroke="black" stroke-miterlimit="10" pointer-events="stroke"/></g><g transform="translate(0.5,0.5)" style="visibility: visible;"><path d="M 293.14 397.55 L 297.45 366.17 L 329.07 366.17 L 324.76 397.55 Z" fill="#ffffff" stroke="#000000" stroke-miterlimit="10" pointer-events="all"/></g><g style=""><g fill="black" font-family="Arial,Helvetica" direction="" text-anchor="middle" font-size="4.894472012371119px"><rect fill="none" stroke="none" x="297" y="376" width="27" height="12" stroke-width="1" transform="translate(0.5, 0.5)"/><text x="311.1" y="381.1">Question</text><text x="311.1" y="386.91">Generation</text></g></g><g transform="translate(0.5,0.5)" style="visibility: visible;"><path d="M 185.11 305.73 L 293.14 371.01" fill="none" stroke="white" stroke-miterlimit="10" pointer-events="stroke" visibility="hidden" stroke-width="9"/><path d="M 185.11 305.73 L 293.14 371.01" fill="none" stroke="black" stroke-miterlimit="10" pointer-events="stroke"/></g><g transform="translate(0.5,0.5)" style="visibility: visible;"><path d="M 239.83 487.49 L 244.01 452.62 L 274.7 452.62 L 270.52 487.49 Z" fill="#ffffff" stroke="#000000" stroke-miterlimit="10" pointer-events="all"/></g><g style=""><g fill="black" font-family="Arial,Helvetica" direction="" text-anchor="middle" font-size="4.894472012371119px"><rect fill="none" stroke="none" x="244" y="461" width="26" height="18" stroke-width="1" transform="translate(0.5, 0.5)"/><text x="257.27" y="466.38">AI</text><text x="257.27" y="472.19">question</text><text x="257.27" y="478.01">generation</text></g></g><g transform="translate(0.5,0.5)" style="visibility: visible;"><path d="M 301.52 397.55 L 267.91 452.62" fill="none" stroke="white" stroke-miterlimit="10" pointer-events="stroke" visibility="hidden" stroke-width="9"/><path d="M 301.52 397.55 L 267.91 452.62" fill="none" stroke="black" stroke-miterlimit="10" pointer-events="stroke"/></g><g transform="translate(0.5,0.5)" style="visibility: visible;"><path d="M 335.88 499.11 L 341.46 452.62 L 382.38 452.62 L 376.8 499.11 Z" fill="#ffffff" stroke="#000000" stroke-miterlimit="10" pointer-events="all"/></g><g style=""><g fill="black" font-family="Arial,Helvetica" direction="" text-anchor="middle" font-size="4.894472012371119px"><rect fill="none" stroke="none" x="343" y="464" width="33" height="18" stroke-width="1" transform="translate(0.5, 0.5)"/><text x="359.13" y="469.29">Peer-assisted</text><text x="359.13" y="475.1">question</text><text x="359.13" y="480.91">creation</text></g></g><g transform="translate(0.5,0.5)" style="visibility: visible;"><path d="M 319.12 397.55 L 347.25 452.62" fill="none" stroke="white" stroke-miterlimit="10" pointer-events="stroke" visibility="hidden" stroke-width="9"/><path d="M 319.12 397.55 L 347.25 452.62" fill="none" stroke="black" stroke-miterlimit="10" pointer-events="stroke"/></g><g transform="translate(0.5,0.5)" style="visibility: visible;"><path d="M 523.94 307.62 L 528.73 276.23 L 563.86 276.23 L 559.07 307.62 Z" fill="#ffffff" stroke="#000000" stroke-miterlimit="10" pointer-events="all"/></g><g style=""><g fill="black" font-family="Arial,Helvetica" direction="" text-anchor="middle" font-size="4.894472012371119px"><rect fill="none" stroke="none" x="535" y="289" width="17" height="6" stroke-width="1" transform="translate(0.5, 0.5)"/><text x="543.9" y="294.07">Admin</text></g></g><g transform="translate(0.5,0.5)" style="visibility: visible;"><path d="M 376.7 214.06 L 523.94 282.63" fill="none" stroke="white" stroke-miterlimit="10" pointer-events="stroke" visibility="hidden" stroke-width="9"/><path d="M 376.7 214.06 L 523.94 282.63" fill="none" stroke="black" stroke-miterlimit="10" pointer-events="stroke"/></g><g transform="translate(0.5,0.5)" style="visibility: visible;"><path d="M 443.56 409.18 L 449.14 362.68 L 490.06 362.68 L 484.48 409.18 Z" fill="#ffffff" stroke="#000000" stroke-miterlimit="10" pointer-events="all"/></g><g style=""><g fill="black" font-family="Arial,Helvetica" direction="" text-anchor="middle" font-size="4.894472012371119px"><rect fill="none" stroke="none" x="451" y="374" width="30" height="24" stroke-width="1" transform="translate(0.5, 0.5)"/><text x="466.81" y="379.35">Leaderboard</text><text x="466.81" y="385.16">and</text><text x="466.81" y="390.98">reward</text><text x="466.81" y="396.79">system</text></g></g><g transform="translate(0.5,0.5)" style="visibility: visible;"><path d="M 531.03 307.62 L 485.88 362.68" fill="none" stroke="white" stroke-miterlimit="10" pointer-events="stroke" visibility="hidden" stroke-width="9"/><path d="M 531.03 307.62 L 485.88 362.68" fill="none" stroke="black" stroke-miterlimit="10" pointer-events="stroke"/></g><g transform="translate(0.5,0.5)" style="visibility: visible;"><path d="M 551.24 455.68 L 562.4 362.68 L 644.23 362.68 L 633.08 455.68 Z" fill="#ffffff" stroke="#000000" stroke-miterlimit="10" pointer-events="all"/></g><g style=""><g fill="black" font-family="Arial,Helvetica" direction="" text-anchor="middle" font-size="4.894472012371119px"><rect fill="none" stroke="none" x="586" y="386" width="22" height="47" stroke-width="1" transform="translate(0.5, 0.5)"/><text x="597.74" y="390.98">Record</text><text x="597.74" y="396.79">and</text><text x="597.74" y="402.6">track</text><text x="597.74" y="408.41">students’</text><text x="597.74" y="414.23">activity</text><text x="597.74" y="420.04">and</text><text x="597.74" y="425.85">online</text><text x="597.74" y="431.66">time</text></g></g><g transform="translate(0.5,0.5)" style="visibility: visible;"><path d="M 551.1 307.62 L 576.39 362.68" fill="none" stroke="white" stroke-miterlimit="10" pointer-events="stroke" visibility="hidden" stroke-width="9"/><path d="M 551.1 307.62 L 576.39 362.68" fill="none" stroke="black" stroke-miterlimit="10" pointer-events="stroke"/></g><g transform="translate(0.5,0.5)" style="visibility: visible;"><path d="M 296.91 215.43 L 296.91 202.88 C 296.91 200.78 298.18 199.95 298.77 199.53 L 300.46 199.53 C 300.84 199.95 301.72 200.78 302.99 200.78 C 304.26 200.78 305.15 199.95 305.53 199.53 L 307.22 199.53 C 307.68 199.95 309.33 200.78 309.08 202.88 L 309.08 215.43 C 309.08 215.85 308.57 216.69 307.81 216.69 C 307.43 216.69 306.54 216.27 306.54 215.43 L 306.54 204.97 L 306.54 230.08 C 306.54 230.91 306.16 232.17 304.77 232.17 C 304.01 232.17 302.99 230.91 302.99 230.08 L 302.99 216.69 L 302.99 230.08 C 302.99 230.91 301.98 232.17 301.22 232.17 C 299.82 232.17 299.44 230.91 299.44 230.08 L 299.44 204.97 L 299.44 215.43 C 299.44 216.27 298.56 216.69 298.18 216.69 C 297.29 216.69 296.91 215.85 296.91 215.43 M 302.99 199.39 C 298.81 199.39 298.81 193.25 302.99 193.25 C 307.18 193.25 307.18 199.39 302.99 199.39 Z" fill="#ffffff" stroke="#000000" stroke-miterlimit="10" pointer-events="all"/></g><g style=""><g fill="black" font-family="Arial,Helvetica" direction="" text-anchor="middle" font-size="4.894472012371119px"><rect fill="none" stroke="none" x="292" y="231" width="24" height="6" stroke-width="1" transform="translate(0.5, 0.5)"/><text x="304.05" y="236.4">University</text></g></g><g transform="translate(0.5,0.5)" style="visibility: visible;"><path d="M 280.7 151.36 C 280.09 142.06 287.98 136.83 291.63 142.06 C 295.88 134.51 301.95 134.51 306.2 142.06 C 309.85 136.83 317.75 142.06 317.14 151.36 C 326.25 153.11 326.25 172.87 317.14 174.61 C 317.75 183.91 309.85 189.14 306.2 183.91 C 301.95 191.47 295.88 191.47 291.63 183.91 C 287.98 189.14 280.09 183.91 280.7 174.61 C 271.58 172.87 271.58 153.11 280.7 151.36 Z" fill="#ffffff" stroke="#000000" stroke-miterlimit="10" pointer-events="all"/></g><g style=""><g fill="black" font-family="Arial,Helvetica" direction="" text-anchor="middle" font-size="4.894472012371119px"><rect fill="none" stroke="none" x="269" y="147" width="59" height="29" stroke-width="1" transform="translate(0.5, 0.5)"/><text x="298.92" y="151.97">Short response time,</text><text x="298.92" y="157.79">High quality,</text><text x="298.92" y="163.6">Intuitive to use,</text><text x="298.92" y="169.41">Well structured,</text><text x="298.92" y="175.22">Support concurrent usage</text></g></g><g transform="translate(0.5,0.5)" style="visibility: visible;"><path d="M 112.68 305.37 L 112.68 292.81 C 112.68 290.72 113.82 289.88 114.36 289.46 L 115.88 289.46 C 116.22 289.88 117.02 290.72 118.16 290.72 C 119.3 290.72 120.1 289.88 120.44 289.46 L 121.96 289.46 C 122.38 289.88 123.86 290.72 123.63 292.81 L 123.63 305.37 C 123.63 305.78 123.18 306.62 122.49 306.62 C 122.15 306.62 121.35 306.2 121.35 305.37 L 121.35 294.9 L 121.35 320.01 C 121.35 320.85 121.01 322.11 119.75 322.11 C 119.07 322.11 118.16 320.85 118.16 320.01 L 118.16 306.62 L 118.16 320.01 C 118.16 320.85 117.24 322.11 116.56 322.11 C 115.31 322.11 114.96 320.85 114.96 320.01 L 114.96 294.9 L 114.96 305.37 C 114.96 306.2 114.17 306.62 113.82 306.62 C 113.02 306.62 112.68 305.78 112.68 305.37 M 118.16 289.32 C 113.97 289.32 113.97 283.19 118.16 283.19 C 122.34 283.19 122.34 289.32 118.16 289.32 Z" fill="#ffffff" stroke="#000000" stroke-miterlimit="10" pointer-events="all"/></g><g style=""><g fill="black" font-family="Arial,Helvetica" direction="" text-anchor="middle" font-size="4.894472012371119px"><rect fill="none" stroke="none" x="108" y="321" width="22" height="6" stroke-width="1" transform="translate(0.5, 0.5)"/><text x="119.11" y="326.34">Students</text></g></g><g transform="translate(0.5,0.5)" style="visibility: visible;"><path d="M 251.17 240.12 C 241.58 237.33 228.79 236.64 222.4 236.64 C 209.61 236.64 187.23 238.38 187.23 248.84 C 187.23 255.82 212.81 262.79 231.99 266.98 C 241.58 269.07 249.89 270.81 251.17 271.51 C 252.45 270.81 260.76 269.07 270.35 266.98 C 289.53 262.79 315.1 255.82 315.1 248.84 C 315.1 238.38 292.72 236.64 279.94 236.64 C 273.54 236.64 260.76 237.33 251.17 240.12 Z" fill="#ffffff" stroke="#000000" stroke-miterlimit="10" pointer-events="all"/></g><g style=""><g fill="black" font-family="Arial,Helvetica" direction="" text-anchor="middle" font-size="4.894472012371119px"><rect fill="none" stroke="none" x="189" y="244" width="123" height="18" stroke-width="1" transform="translate(0.5, 0.5)"/><text x="251.17" y="248.87">Students feel encouraged to improve through feedback,</text><text x="251.17" y="254.68">Students are engaged,</text><text x="251.17" y="260.5">Students motivated</text></g></g><g transform="translate(0.5,0.5)" style="visibility: visible;"><path d="M 107.13 250.58 C 106.73 246.12 111.92 243.61 114.32 246.12 C 117.11 242.49 121.1 242.49 123.9 246.12 C 126.29 243.61 131.48 246.12 131.08 250.58 C 137.07 251.42 137.07 260.91 131.08 261.74 C 131.48 266.21 126.29 268.72 123.9 266.21 C 121.1 269.83 117.11 269.83 114.32 266.21 C 111.92 268.72 106.73 266.21 107.13 261.74 C 101.14 260.91 101.14 251.42 107.13 250.58 Z" fill="#ffffff" stroke="#000000" stroke-miterlimit="10" pointer-events="all"/></g><g style=""><g fill="black" font-family="Arial,Helvetica" direction="" text-anchor="middle" font-size="4.894472012371119px"><rect fill="none" stroke="none" x="106" y="252" width="26" height="6" stroke-width="1" transform="translate(0.5, 0.5)"/><text x="119.11" y="256.78">Consistent</text></g></g><g transform="translate(0.5,0.5)" style="visibility: visible;"><path d="M 489.19 303.06 L 489.19 291.77 C 489.19 289.88 490.56 289.13 491.2 288.75 L 493.02 288.75 C 493.43 289.13 494.39 289.88 495.76 289.88 C 497.13 289.88 498.09 289.13 498.5 288.75 L 500.33 288.75 C 500.83 289.13 502.61 289.88 502.34 291.77 L 502.34 303.06 C 502.34 303.44 501.79 304.19 500.97 304.19 C 500.56 304.19 499.6 303.82 499.6 303.06 L 499.6 293.65 L 499.6 316.25 C 499.6 317 499.19 318.13 497.68 318.13 C 496.86 318.13 495.76 317 495.76 316.25 L 495.76 304.19 L 495.76 316.25 C 495.76 317 494.67 318.13 493.84 318.13 C 492.34 318.13 491.93 317 491.93 316.25 L 491.93 293.65 L 491.93 303.06 C 491.93 303.82 490.97 304.19 490.56 304.19 C 489.6 304.19 489.19 303.44 489.19 303.06 M 495.76 288.63 C 492 288.63 492 283.1 495.76 283.1 C 499.53 283.1 499.53 288.63 495.76 288.63 Z" fill="#ffffff" stroke="#000000" stroke-miterlimit="10" pointer-events="all"/></g><g style=""><g fill="black" font-family="Arial,Helvetica" direction="" text-anchor="middle" font-size="4.894472012371119px"><rect fill="none" stroke="none" x="474" y="317" width="46" height="12" stroke-width="1" transform="translate(0.5, 0.5)"/><text x="496.9" y="322.15">Subject Coordinator</text><text x="496.9" y="327.97">Tutors</text></g></g><g transform="translate(0.5,0.5)" style="visibility: visible;"><path d="M 652.3 243 C 639.35 240.59 622.09 239.98 613.46 239.98 C 596.19 239.98 565.98 241.49 565.98 250.53 C 565.98 256.56 600.51 262.58 626.4 266.2 C 639.35 268 650.57 269.51 652.3 270.11 C 654.02 269.51 665.24 268 678.19 266.2 C 704.08 262.58 738.61 256.56 738.61 250.53 C 738.61 241.49 708.4 239.98 691.14 239.98 C 682.5 239.98 665.24 240.59 652.3 243 Z" fill="#ffffff" stroke="#000000" stroke-miterlimit="10" pointer-events="all"/></g><g style=""><g fill="black" font-family="Arial,Helvetica" direction="" text-anchor="middle" font-size="4.894472012371119px"><rect fill="none" stroke="none" x="570" y="251" width="165" height="6" stroke-width="1" transform="translate(0.5, 0.5)"/><text x="652.3" y="255.66">Staff and the coordinator are confident the subject has sufficient resources.</text></g></g></g><g/><g/></g></svg>